name C:\Users\antoi\Documents\MyRepositories\upper-imu-dc\Results\main_tracking\Case_78\kinematics.mot
datacolumns 10
datarows 33
range 0.70000000 1.02000000
endheader 
time	clav_prot	clav_elev	scapula_abduction	scapula_elevation	scapula_upward_rot	scapula_winging	plane_elv	shoulder_elv	axial_rot	
          0.70000000	        -24.44314656	          3.61654247	        -22.22547459	          3.97042466	          6.00229547	          6.06627562	         22.40055179	         18.62919610	          4.79968585	
          0.71000000	        -24.40097036	          3.39422878	        -22.25623340	          3.91593383	          5.62622338	          6.18971995	         23.10985847	         19.28321904	          4.31970521	
          0.72000000	        -24.36571068	          3.17193950	        -22.28419461	          3.85849933	          5.25797217	          6.31064274	         23.81996051	         19.94601321	          3.84015287	
          0.73000000	        -24.33178151	          2.94824172	        -22.30943865	          3.79769047	          4.89716281	          6.42926948	         24.53185553	         20.61694013	          3.36065153	
          0.74000000	        -24.29868007	          2.72308292	        -22.33104700	          3.73337589	          4.54412042	          6.54559862	         25.24649157	         21.29568651	          2.88142320	
          0.75000000	        -24.26586433	          2.49643072	        -22.34812871	          3.66549509	          4.19900231	          6.65968334	         25.96487870	         21.98194460	          2.40281497	
          0.76000000	        -24.23275096	          2.26828671	        -22.35979744	          3.59405694	          3.86183988	          6.77161579	         26.68802651	         22.67535998	          1.92542922	
          0.77000000	        -24.19872666	          2.03868311	        -22.36518378	          3.51913543	          3.53254266	          6.88152254	         27.41690520	         23.37553657	          1.45006835	
          0.78000000	        -24.16317377	          1.80766962	        -22.36345950	          3.44085029	          3.21092292	          6.98955374	         28.15241233	         24.08204747	          0.97767161	
          0.79000000	        -24.12549863	          1.57529298	        -22.35386852	          3.35934410	          2.89671150	          7.09587598	         28.89533523	         24.79443387	          0.50922089	
          0.80000000	        -24.08517039	          1.34157883	        -22.33577395	          3.27475750	          2.58958344	          7.20066278	         29.64631297	         25.51220349	          0.04563007	
          0.81000000	        -24.04176146	          1.10650366	        -22.30869646	          3.18719010	          2.28920302	          7.30408145	         30.40582880	         26.23488517	         -0.41239893	
          0.82000000	        -23.99505200	          0.87001591	        -22.27243117	          3.09665871	          1.99538612	          7.40624252	         31.17405704	         26.96209968	         -0.86449417	
          0.83000000	        -23.94512501	          0.63241136	        -22.22733244	          3.00337214	          1.70814740	          7.50716120	         31.95072926	         27.69365892	         -1.31087920	
          0.84000000	        -23.89227829	          0.39386990	        -22.17399849	          2.90737909	          1.42767713	          7.60679899	         32.73532904	         28.42949418	         -1.75224444	
          0.85000000	        -23.83692598	          0.15452799	        -22.11320163	          2.80868150	          1.15418373	          7.70511359	         33.52728223	         29.16955343	         -2.18972578	
          0.86000000	        -23.77959202	         -0.08550803	        -22.04588882	          2.70724965	          0.88788045	          7.80206500	         34.32592244	         29.91377295	         -2.62484563	
          0.87000000	        -23.72088409	         -0.32617700	        -21.97313325	          2.60301308	          0.62898209	          7.89762121	         35.13053859	         30.66208044	         -3.05948439	
          0.88000000	        -23.66147906	         -0.56747058	        -21.89610109	          2.49585066	          0.37772017	          7.99175791	         35.94042250	         31.41440483	         -3.49584292	
          0.89000000	        -23.60209633	         -0.80942655	        -21.81602047	          2.38560603	          0.13431611	          8.08446848	         36.75489758	         32.17067376	         -3.93637398	
          0.90000000	        -23.54346005	         -1.05211865	        -21.73414424	          2.27211641	         -0.10107616	          8.17578092	         37.57330431	         32.93077028	         -4.38368176	
          0.91000000	        -23.48630887	         -1.29564034	        -21.65175434	          2.15521148	         -0.32832852	          8.26574482	         38.39501652	         33.69456628	         -4.84045423	
          0.92000000	        -23.43136439	         -1.54009505	        -21.57011249	          2.03472500	         -0.54734465	          8.35443228	         39.21943298	         34.46188414	         -5.30934231	
          0.93000000	        -23.37928426	         -1.78557264	        -21.49038568	          1.91051643	         -0.75805999	          8.44193438	         40.04597107	         35.23247030	         -5.79280457	
          0.94000000	        -23.33065269	         -2.03213658	        -21.41363010	          1.78247957	         -0.96043515	          8.52835543	         40.87407250	         36.00600743	         -6.29298491	
          0.95000000	        -23.28596907	         -2.27982258	        -21.34077060	          1.65054441	         -1.15445627	          8.61381005	         41.70320319	         36.78210856	         -6.81156064	
          0.96000000	        -23.24560407	         -2.52860627	        -21.27250453	          1.51468296	         -1.34006433	          8.69839710	         42.53283613	         37.56028976	         -7.34965474	
          0.97000000	        -23.20979764	         -2.77839340	        -21.20929829	          1.37491581	         -1.51715081	          8.78219324	         43.36246649	         38.33998523	         -7.90768385	
          0.98000000	        -23.17866020	         -3.02901541	        -21.15139484	          1.23131981	         -1.68557082	          8.86525151	         44.19163084	         39.12055306	         -8.48523901	
          0.99000000	        -23.15215681	         -3.28019594	        -21.09871941	          1.08399603	         -1.84495590	          8.94754465	         45.01990698	         39.90110571	         -9.08111335	
          1.00000000	        -23.13010731	         -3.53154375	        -21.05091025	          0.93309881	         -1.99478663	          9.02897857	         45.84690969	         40.68061888	         -9.69313511	
          1.01000000	        -23.11213600	         -3.78252784	        -21.00730760	          0.77891650	         -2.13457213	          9.10942658	         46.67224534	         41.45817267	        -10.31841854	
          1.02000000	        -23.09783315	         -4.03260580	        -20.96714932	          0.62172179	         -2.26373283	          9.18872094	         47.49558803	         42.23279260	        -10.95338302	
